<?xml version="1.0" encoding="utf-8"?>
<svg viewBox="239.661 191.638 20.199 20.199" width="20.199" height="20.199" xmlns="http://www.w3.org/2000/svg">
  <rect x="239.661" y="191.638" width="20.199" height="20.199" fill-opacity="0"/>
  <polygon style="fill: rgb(255, 255, 255); stroke-miterlimit: 1;" points="244.653 193.245 244.558 204.345 248.192 204.329 248.085 207.13 251.541 204.349 254.437 204.408 257.238 201.465 257.095 192.708 256.988 192.752"/>
  <path d="M 249.447 195.654 L 250.877 195.654 L 250.877 199.934 L 249.447 199.934 M 253.377 195.654 L 254.807 195.654 L 254.807 199.934 L 253.377 199.934 M 244.807 191.724 L 241.237 195.294 L 241.237 208.154 L 245.517 208.154 L 245.517 211.724 L 249.097 208.154 L 251.947 208.154 L 258.377 201.724 L 258.377 191.724 M 256.947 201.014 L 254.097 203.864 L 251.237 203.864 L 248.737 206.364 L 248.737 203.864 L 245.517 203.864 L 245.517 193.154 L 256.947 193.154 Z" fill="#6441a5"/>
</svg>