<?xml version="1.0" encoding="utf-8"?>
<svg viewBox="269.532 173.074 20.968 20.938" width="20.968" height="20.938" xmlns="http://www.w3.org/2000/svg">
  <rect x="269.532" y="173.074" width="20.938" height="20.938" fill-opacity="0"/>
  <path d="M 290.5 177.508 C 289.73 177.858 288.9 178.088 288.04 178.198 C 288.92 177.668 289.6 176.828 289.92 175.818 C 289.09 176.318 288.17 176.668 287.2 176.868 C 286.41 176.008 285.3 175.508 284.04 175.508 C 281.69 175.508 279.77 177.428 279.77 179.798 C 279.77 180.138 279.81 180.468 279.88 180.778 C 276.32 180.598 273.15 178.888 271.04 176.298 C 270.67 176.928 270.46 177.668 270.46 178.448 C 270.46 179.938 271.21 181.258 272.37 182.008 C 271.66 182.008 271 181.808 270.42 181.508 L 270.42 181.538 C 270.42 183.618 271.9 185.358 273.86 185.748 C 273.231 185.92 272.57 185.944 271.93 185.818 C 272.487 187.566 274.096 188.765 275.93 188.798 C 274.414 189.999 272.534 190.647 270.6 190.638 C 270.26 190.638 269.92 190.618 269.58 190.578 C 271.48 191.798 273.74 192.508 276.16 192.508 C 284.04 192.508 288.37 185.968 288.37 180.298 C 288.37 180.108 288.37 179.928 288.36 179.738 C 289.2 179.138 289.92 178.378 290.5 177.508 Z" fill="#55acee"/>
</svg>