<?xml version="1.0" encoding="utf-8"?>
<svg viewBox="243.352 157.485 20.104 20.104" width="20.104" height="20.104" xmlns="http://www.w3.org/2000/svg">
  <rect x="243.352" y="157.485" width="20.104" height="20.104" fill-opacity="0"/>
  <rect x="247.84" y="163.177" width="12.19" height="8.668" style="fill: rgb(255, 255, 255);"/>
  <path d="M 251.401 170.268 L 256.591 167.268 L 251.401 164.268 L 251.401 170.268 M 262.961 162.438 C 263.091 162.908 263.181 163.538 263.241 164.338 C 263.311 165.138 263.341 165.828 263.341 166.428 L 263.401 167.268 C 263.401 169.458 263.241 171.068 262.961 172.098 C 262.711 172.998 262.131 173.578 261.231 173.828 C 260.761 173.958 259.901 174.048 258.581 174.108 C 257.281 174.178 256.091 174.208 254.991 174.208 L 253.401 174.268 C 249.211 174.268 246.601 174.108 245.571 173.828 C 244.671 173.578 244.091 172.998 243.841 172.098 C 243.711 171.628 243.621 170.998 243.561 170.198 C 243.491 169.398 243.461 168.708 243.461 168.108 L 243.401 167.268 C 243.401 165.078 243.561 163.468 243.841 162.438 C 244.091 161.538 244.671 160.958 245.571 160.708 C 246.041 160.578 246.901 160.488 248.221 160.428 C 249.521 160.358 250.711 160.328 251.811 160.328 L 253.401 160.268 C 257.591 160.268 260.201 160.428 261.231 160.708 C 262.131 160.958 262.711 161.538 262.961 162.438 Z" fill="#cd201f"/>
</svg>