<?xml version="1.0" encoding="utf-8"?>
<svg viewBox="349.185 148.964 20 14" xmlns="http://www.w3.org/2000/svg" width="1em" height="1em">
  <rect x="354.105" y="150.876" width="10.186" height="9.033" style="fill: rgb(255, 255, 255);"/>
  <path d="M 357.185 158.964 L 362.375 155.964 L 357.185 152.964 L 357.185 158.964 M 368.745 151.134 C 368.875 151.604 368.965 152.234 369.025 153.034 C 369.095 153.834 369.125 154.524 369.125 155.124 L 369.185 155.964 C 369.185 158.154 369.025 159.764 368.745 160.794 C 368.495 161.694 367.915 162.274 367.015 162.524 C 366.545 162.654 365.685 162.744 364.365 162.804 C 363.065 162.874 361.875 162.904 360.775 162.904 L 359.185 162.964 C 354.995 162.964 352.385 162.804 351.355 162.524 C 350.455 162.274 349.875 161.694 349.625 160.794 C 349.495 160.324 349.405 159.694 349.345 158.894 C 349.275 158.094 349.245 157.404 349.245 156.804 L 349.185 155.964 C 349.185 153.774 349.345 152.164 349.625 151.134 C 349.875 150.234 350.455 149.654 351.355 149.404 C 351.825 149.274 352.685 149.184 354.005 149.124 C 355.305 149.054 356.495 149.024 357.595 149.024 L 359.185 148.964 C 363.375 148.964 365.985 149.124 367.015 149.404 C 367.915 149.654 368.495 150.234 368.745 151.134 Z" fill="#cd201f"/>
</svg>